<svg xmlns="http://www.w3.org/2000/svg" viewBox="0 0 129.28 111.37"><defs><style>.cls-1,.cls-2{fill:none;stroke-linecap:round;stroke-width:3px;}.cls-1{stroke:#344154;stroke-linejoin:round;}.cls-2{stroke:#df2d52;stroke-miterlimit:10;}</style></defs><title>アセット 1</title><g id="レイヤー_2" data-name="レイヤー 2"><g id="編集モード"><path class="cls-1" d="M65,82.1a.38.38,0,0,1-.39.39.39.39,0,0,1-.4-.39.4.4,0,0,1,.4-.4A.39.39,0,0,1,65,82.1Z"/><path class="cls-1" d="M64.64,88.38h20a40,40,0,0,0,.53,10.1c.77,3.83,3.59,7.24,7.77,9.38h0c1.17.6.62,2-.78,2H37.17c-1.4,0-2-1.41-.78-2h0c4.17-2.14,7-5.55,7.77-9.38a40,40,0,0,0,.53-10.1Z"/><line class="cls-1" x1="15.19" y1="72.98" x2="114.09" y2="72.98"/><rect class="cls-1" x="1.5" y="1.5" width="126.28" height="86.88" rx="5.88"/><path class="cls-1" d="M54,62.87a.45.45,0,0,1-.45.45.45.45,0,1,1,0-.9A.45.45,0,0,1,54,62.87Z"/><path class="cls-1" d="M65.09,62.87a.45.45,0,1,1-.45-.45A.45.45,0,0,1,65.09,62.87Z"/><path class="cls-1" d="M76.14,62.87a.45.45,0,1,1-.45-.45A.45.45,0,0,1,76.14,62.87Z"/><polyline class="cls-2" points="23.16 31.55 38.83 31.55 42.76 42.76 50.64 20.52 54.58 31.84 61.02 31.84 65.09 42.76 69.17 31.84 75.61 31.84 79.55 20.52 87.42 42.76 91.36 31.55 107.03 31.55"/></g></g></svg>