<svg xmlns="http://www.w3.org/2000/svg" viewBox="0 0 131.14 96.99"><defs><style>.cls-1{fill:none;stroke:#344154;stroke-linecap:round;stroke-miterlimit:10;stroke-width:3px;}.cls-2{fill:#df2d52;}</style></defs><title>アセット 12</title><g id="レイヤー_2" data-name="レイヤー 2"><g id="編集モード"><path class="cls-1" d="M1.5,17.23V90.71a4.78,4.78,0,0,0,4.78,4.78H124.86a4.78,4.78,0,0,0,4.78-4.78V22a4.78,4.78,0,0,0-4.78-4.78H47.14"/><path class="cls-1" d="M47.14,17.23H1.5V1.5H35.73a8.87,8.87,0,0,1,8.48,6.26Z"/><path class="cls-1" d="M95.93,95.49V72.67a9.27,9.27,0,0,0-9.28-9.28H44.48a9.28,9.28,0,0,0-9.28,9.28V95.49"/><path class="cls-2" d="M13.81,32.11c82.12,0,109.55,18.08,109.55,18.08V23.5H7.77v8.57S9.93,32.11,13.81,32.11Z"/></g></g></svg>