<svg xmlns="http://www.w3.org/2000/svg" viewBox="0 0 129.46 89.06"><defs><style>.cls-1{fill:#5498b3;}.cls-2,.cls-3,.cls-4{fill:none;stroke-width:3px;}.cls-2,.cls-4{stroke:#344154;}.cls-2{stroke-miterlimit:10;}.cls-3{stroke:#555;}.cls-3,.cls-4{stroke-linecap:round;stroke-linejoin:round;}</style></defs><title>アセット 13</title><g id="レイヤー_2" data-name="レイヤー 2"><g id="編集モード"><polygon class="cls-1" points="34.72 40.53 34.72 35.73 112.69 15.81 112.69 40.53 34.72 40.53"/><polyline class="cls-2" points="118.69 8.09 28.72 31.07 28.72 44.53 28.72 57.99 118.69 80.97"/><path class="cls-3" d="M118.69,44.53V6.14a4.63,4.63,0,0,1,4.63-4.64h0A4.64,4.64,0,0,1,128,6.14V82.92a4.64,4.64,0,0,1-4.64,4.64h0a4.63,4.63,0,0,1-4.63-4.64V67.74"/><polyline class="cls-4" points="12.24 60.37 28.72 57.76 28.72 31.07 12.24 28.47"/><path class="cls-3" d="M12.24,59.12a5.38,5.38,0,0,1-5.37,5.37h0A5.37,5.37,0,0,1,1.5,59.12V29.72a5.36,5.36,0,0,1,5.37-5.37h0a5.37,5.37,0,0,1,5.37,5.37v7"/><path class="cls-3" d="M47.92,63.13V80.07a5.45,5.45,0,0,0,5.45,5.45H74.19a5.45,5.45,0,0,0,5.45-5.45V71.69"/></g></g></svg>