<svg xmlns="http://www.w3.org/2000/svg" viewBox="0 0 111.5 131.51"><defs><style>.cls-1,.cls-2{fill:none;stroke:#344154;stroke-linecap:round;stroke-width:3px;}.cls-1{stroke-linejoin:round;}.cls-2{stroke-miterlimit:10;}.cls-3{fill:#5498b3;}</style></defs><title>アセット 3</title><g id="レイヤー_2" data-name="レイヤー 2"><g id="編集モード"><rect class="cls-1" x="23.91" y="15.62" width="26.2" height="100.43" transform="translate(35.96 -9.68) rotate(28.55)"/><path class="cls-2" d="M76.67,9.83,62.48,2.11a5,5,0,0,0-6.82,2L49.5,15.46,72.52,28l6.16-11.33A5,5,0,0,0,76.67,9.83Z"/><rect class="cls-3" x="62.33" y="6.74" width="5.93" height="14.2" transform="translate(21.92 64.58) rotate(-61.45)"/><line class="cls-2" x1="61.01" y1="21.72" x2="46.07" y2="49.18"/><polygon class="cls-1" points="1.5 103.68 2.49 130.01 24.52 116.2 1.5 103.68"/><line class="cls-1" x1="3.1" y1="130.01" x2="110" y2="130.01"/><line class="cls-1" x1="57.64" y1="116.2" x2="110" y2="116.2"/><line class="cls-1" x1="57.64" y1="102.4" x2="110" y2="102.4"/></g></g></svg>