<svg xmlns="http://www.w3.org/2000/svg" viewBox="0 0 87.4 131.24"><defs><style>.cls-1{fill:none;stroke:#555;stroke-miterlimit:10;stroke-width:3px;}.cls-2{fill:#5498b3;}</style></defs><title>アセット 6</title><g id="レイヤー_2" data-name="レイヤー 2"><g id="編集モード"><path class="cls-1" d="M50.51,8.72V8.31A6.81,6.81,0,0,0,43.7,1.5h0a6.82,6.82,0,0,0-6.82,6.81v.41"/><path class="cls-2" d="M29.74,10.62V25a2.46,2.46,0,0,0,2.46,2.45h1a2.45,2.45,0,0,0,2.44-2.14l0-.3a8.6,8.6,0,0,1,8.53-7.49h0A8.6,8.6,0,0,1,52.72,25l0,.3a2.45,2.45,0,0,0,2.44,2.14h0A2.46,2.46,0,0,0,57.66,25V10.62a1.9,1.9,0,0,0-1.9-1.9H31.64A1.9,1.9,0,0,0,29.74,10.62Z"/><path class="cls-1" d="M29.74,14.47H8.15A6.65,6.65,0,0,0,1.5,21.12v102a6.65,6.65,0,0,0,6.65,6.65h71.1a6.65,6.65,0,0,0,6.65-6.65v-102a6.65,6.65,0,0,0-6.65-6.65H57.66"/><path class="cls-1" d="M25,24.32H11.35v95.57h46a4.1,4.1,0,0,0,4.1-4.11V105.29h10.5a4.11,4.11,0,0,0,4.11-4.11V24.32H62.45"/><polyline class="cls-1" points="36.15 65.01 28.33 73.29 24.55 69.51"/><line class="cls-1" x1="24.94" y1="50.27" x2="34.26" y2="40.95"/><line class="cls-1" x1="34.26" y1="50.27" x2="24.94" y2="40.95"/><line class="cls-1" x1="24.94" y1="98.28" x2="34.26" y2="88.96"/><line class="cls-1" x1="34.26" y1="98.28" x2="24.94" y2="88.96"/><line class="cls-1" x1="40.91" y1="50.27" x2="67.88" y2="50.27"/><line class="cls-1" x1="40.91" y1="73.84" x2="67.88" y2="73.84"/></g></g></svg>