<svg xmlns="http://www.w3.org/2000/svg" viewBox="0 0 129.62 137.35"><defs><style>.cls-1,.cls-2,.cls-3{fill:none;stroke-miterlimit:10;stroke-width:3px;}.cls-1{stroke:#344154;}.cls-1,.cls-2{stroke-linecap:round;}.cls-2,.cls-3{stroke:#555;}.cls-4{fill:#5498b3;}</style></defs><title>アセット 8</title><g id="レイヤー_2" data-name="レイヤー 2"><g id="編集モード"><path class="cls-1" d="M103.22,91.53A20.54,20.54,0,0,0,97.1,83a16.79,16.79,0,0,0-6.9-3.62L72.4,74.18a3.87,3.87,0,0,1-2.77-3.28l-.83-7A30.37,30.37,0,0,0,79.25,47.45c3.17-.29,5.62-3.82,5.62-8.28,0-4.12-2.07-7.46-4.91-8.17"/><path class="cls-2" d="M29.72,31.05C27,31.83,25,35.12,25,39.17c0,4.46,2.43,8,5.6,8.28A30.52,30.52,0,0,0,41,63.86l-.82,7a3.85,3.85,0,0,1-1.68,2.77,4,4,0,0,1-1.08.51L19.69,79.33a16.81,16.81,0,0,0-7,3.64,20.52,20.52,0,0,0-7,11.78L1.52,115.59a1,1,0,0,0,1,1.2h86"/><path class="cls-2" d="M80,31s1.47-29.5-25-29.5S29.72,31.05,29.72,31.05"/><path class="cls-2" d="M31.61,18.37a9.48,9.48,0,0,1,5.26-4.55c3.6-1.3,7.62-.26,11.1,1.33,5,2.29,9.41,5,15.05,5.61a25.77,25.77,0,0,0,15.1-2.46"/><line class="cls-1" x1="38.52" y1="73.67" x2="54.91" y2="90.66"/><line class="cls-1" x1="71.3" y1="73.67" x2="54.91" y2="90.66"/><path class="cls-3" d="M128.12,116.05a19.8,19.8,0,1,0-19.79,19.8A19.79,19.79,0,0,0,128.12,116.05Z"/><line class="cls-2" x1="108.33" y1="126.02" x2="108.33" y2="106.09"/><line class="cls-2" x1="98.36" y1="116.05" x2="118.29" y2="116.05"/><path class="cls-4" d="M73.1,79,57.93,95a4.23,4.23,0,0,1-6,0L36.73,79l-6.19,1.88,24.3,26,.07-.06.07.06,24.3-26Z"/></g></g></svg>