<svg xmlns="http://www.w3.org/2000/svg" viewBox="0 0 110.15 130.52"><defs><style>.cls-1{fill:none;stroke:#344154;stroke-linecap:round;stroke-miterlimit:10;stroke-width:3px;}.cls-2{fill:#df2d52;}</style></defs><title>アセット 11</title><g id="レイヤー_2" data-name="レイヤー 2"><g id="編集モード"><path class="cls-1" d="M96,97a40.41,40.41,0,0,1-6.9-12.45,71.67,71.67,0,0,1-4.32-25V39.82a29.74,29.74,0,0,0-59.47,0V59.55a71.67,71.67,0,0,1-4.32,25A40.41,40.41,0,0,1,14.12,97"/><path class="cls-2" d="M41.9,47.55a20,20,0,0,1,17-15.1c5.68-.57,12.52,1.25,19.87,8.57v-1.2a23.74,23.74,0,0,0-47.47,0V59.55A81.3,81.3,0,0,1,30,74.17h0A98.76,98.76,0,0,0,41.9,47.55Z"/><path class="cls-1" d="M33.2,97H9.49a8,8,0,0,0-8,8h0a8,8,0,0,0,8,8h91.16a8,8,0,0,0,8-8h0a8,8,0,0,0-8-8H77"/><path class="cls-1" d="M39.09,113a16,16,0,1,0,32,0"/><path class="cls-1" d="M63.66,10.09a8.59,8.59,0,1,0-17.17,0"/></g></g></svg>