<svg viewbox="0 0 326.67 113.33" xmlns="http://www.w3.org/2000/svg">
    <style type="text/css">
        .st1{fill:url(#SVGID_1_);}
    </style>
	<g data-name="Layer 2">
        <linearGradient id="SVGID_1_" gradientUnits="userSpaceOnUse" x1="49.2667" y1="141.7323" x2="375.9333" y2="141.7323">
            <stop  offset="0" style="stop-color:#7C5DA3"/>
            <stop  offset="0.2" style="stop-color:#459FB4"/>
            <stop  offset="0.4" style="stop-color:#A3C439"/>
            <stop  offset="0.6" style="stop-color:#F5E800"/>
            <stop  offset="0.8" style="stop-color:#EE8721"/>
            <stop  offset="1" style="stop-color:#E83624"/>
        </linearGradient>
		<g class="st1" data-name="Layer 1">
			<rect height="6.67" width="6.67" y="53.33"></rect>
			<rect height="6.67" width="6.67" x="10" y="13.33"></rect>
			<rect height="6.67" width="6.67" x="10" y="26.67"></rect>
			<rect height="6.67" width="6.67" x="10" y="93.33"></rect>
			<rect height="6.67" width="6.67" x="10" y="80"></rect>
			<rect height="6.67" width="6.67" x="10" y="53.33"></rect>
			<rect height="6.67" width="6.67" x="10" y="40"></rect>
			<rect height="6.67" width="6.67" x="10" y="66.67"></rect>
			<rect height="6.67" width="6.67" x="20" y="53.33"></rect>
			<rect height="6.67" width="6.67" x="20" y="40"></rect>
			<rect height="6.67" width="6.67" x="20" y="66.67"></rect>
			<rect height="6.67" width="6.67" x="30" y="13.33"></rect>
			<rect height="6.67" width="6.67" x="30"></rect>
			<rect height="6.67" width="6.67" x="30" y="26.67"></rect>
			<rect height="6.67" width="6.67" x="30" y="93.33"></rect>
			<rect height="6.67" width="6.67" x="30" y="80"></rect>
			<rect height="6.67" width="6.67" x="30" y="106.67"></rect>
			<rect height="6.67" width="6.67" x="30" y="53.33"></rect>
			<rect height="6.67" width="6.67" x="30" y="40"></rect>
			<rect height="6.67" width="6.67" x="30" y="66.67"></rect>
			<rect height="6.67" width="6.67" x="40" y="13.33"></rect>
			<rect height="6.67" width="6.67" x="40" y="26.67"></rect>
			<rect height="6.67" width="6.67" x="40" y="93.33"></rect>
			<rect height="6.67" width="6.67" x="40" y="80"></rect>
			<rect height="6.67" width="6.67" x="40" y="53.33"></rect>
			<rect height="6.67" width="6.67" x="40" y="40"></rect>
			<rect height="6.67" width="6.67" x="40" y="66.67"></rect>
			<rect height="6.67" width="6.67" x="50" y="53.33"></rect>
			<rect height="6.67" width="6.67" x="50" y="40"></rect>
			<rect height="6.67" width="6.67" x="50" y="66.67"></rect>
			<rect height="6.67" width="6.67" x="60" y="13.33"></rect>
			<rect height="6.67" width="6.67" x="60" y="26.67"></rect>
			<rect height="6.67" width="6.67" x="60" y="93.33"></rect>
			<rect height="6.67" width="6.67" x="60" y="80"></rect>
			<rect height="6.67" width="6.67" x="60" y="53.33"></rect>
			<rect height="6.67" width="6.67" x="60" y="40"></rect>
			<rect height="6.67" width="6.67" x="60" y="66.67"></rect>
			<rect height="6.67" width="6.67" x="70" y="26.67"></rect>
			<rect height="6.67" width="6.67" x="70" y="93.33"></rect>
			<rect height="6.67" width="6.67" x="70" y="80"></rect>
			<rect height="6.67" width="6.67" x="70" y="53.33"></rect>
			<rect height="6.67" width="6.67" x="70" y="40"></rect>
			<rect height="6.67" width="6.67" x="70" y="66.67"></rect>
			<rect height="6.67" width="6.67" x="80" y="13.33"></rect>
			<rect height="6.67" width="6.67" x="80"></rect>
			<rect height="6.67" width="6.67" x="80" y="26.67"></rect>
			<rect height="6.67" width="6.67" x="80" y="93.33"></rect>
			<rect height="6.67" width="6.67" x="80" y="80"></rect>
			<rect height="6.67" width="6.67" x="80" y="106.67"></rect>
			<rect height="6.67" width="6.67" x="80" y="53.33"></rect>
			<rect height="6.67" width="6.67" x="80" y="40"></rect>
			<rect height="6.67" width="6.67" x="80" y="66.67"></rect>
			<rect height="6.67" width="6.67" x="90" y="53.33"></rect>
			<rect height="6.67" width="6.67" x="100" y="26.67"></rect>
			<rect height="6.67" width="6.67" x="100" y="80"></rect>
			<rect height="6.67" width="6.67" x="100" y="66.67"></rect>
			<rect height="6.67" width="6.67" x="100" y="53.33"></rect>
			<rect height="6.67" width="6.67" x="100" y="40"></rect>
			<rect height="6.67" width="6.67" x="110" y="66.67"></rect>
			<rect height="6.67" width="6.67" x="110" y="53.33"></rect>
			<rect height="6.67" width="6.67" x="110" y="40"></rect>
			<rect height="6.67" width="6.67" x="120" y="13.33"></rect>
			<rect height="6.67" width="6.67" x="120"></rect>
			<rect height="6.67" width="6.67" x="120" y="26.67"></rect>
			<rect height="6.67" width="6.67" x="120" y="93.33"></rect>
			<rect height="6.67" width="6.67" x="120" y="80"></rect>
			<rect height="6.67" width="6.67" x="120" y="106.67"></rect>
			<rect height="6.67" width="6.67" x="120" y="53.33"></rect>
			<rect height="6.67" width="6.67" x="120" y="40"></rect>
			<rect height="6.67" width="6.67" x="120" y="66.67"></rect>
			<rect height="6.67" width="6.67" x="130" y="26.67"></rect>
			<rect height="6.67" width="6.67" x="130" y="80"></rect>
			<rect height="6.67" width="6.67" x="130" y="53.33"></rect>
			<rect height="6.67" width="6.67" x="130" y="40"></rect>
			<rect height="6.67" width="6.67" x="130" y="66.67"></rect>
			<rect height="6.67" width="6.67" x="140" y="13.33"></rect>
			<rect height="6.67" width="6.67" x="140"></rect>
			<rect height="6.67" width="6.67" x="140" y="26.67"></rect>
			<rect height="6.67" width="6.67" x="140" y="93.33"></rect>
			<rect height="6.67" width="6.67" x="140" y="80"></rect>
			<rect height="6.67" width="6.67" x="140" y="106.67"></rect>
			<rect height="6.67" width="6.67" x="140" y="53.33"></rect>
			<rect height="6.67" width="6.67" x="140" y="40"></rect>
			<rect height="6.67" width="6.67" x="140" y="66.67"></rect>
			<rect height="6.67" width="6.67" x="150" y="13.33"></rect>
			<rect height="6.67" width="6.67" x="150" y="26.67"></rect>
			<rect height="6.67" width="6.67" x="150" y="93.33"></rect>
			<rect height="6.67" width="6.67" x="150" y="80"></rect>
			<rect height="6.67" width="6.67" x="150" y="53.33"></rect>
			<rect height="6.67" width="6.67" x="150" y="40"></rect>
			<rect height="6.67" width="6.67" x="150" y="66.67"></rect>
			<rect height="6.67" width="6.67" x="160" y="53.33"></rect>
			<rect height="6.67" width="6.67" x="160" y="40"></rect>
			<rect height="6.67" width="6.67" x="160" y="66.67"></rect>
			<rect height="6.67" width="6.67" x="170" y="13.33"></rect>
			<rect height="6.67" width="6.67" x="170"></rect>
			<rect height="6.67" width="6.67" x="170" y="26.67"></rect>
			<rect height="6.67" width="6.67" x="170" y="93.33"></rect>
			<rect height="6.67" width="6.67" x="170" y="80"></rect>
			<rect height="6.67" width="6.67" x="170" y="106.67"></rect>
			<rect height="6.67" width="6.67" x="170" y="53.33"></rect>
			<rect height="6.67" width="6.67" x="170" y="40"></rect>
			<rect height="6.67" width="6.67" x="170" y="66.67"></rect>
			<rect height="6.67" width="6.67" x="180" y="13.33"></rect>
			<rect height="6.67" width="6.67" x="180" y="26.67"></rect>
			<rect height="6.67" width="6.67" x="180" y="93.33"></rect>
			<rect height="6.67" width="6.67" x="180" y="80"></rect>
			<rect height="6.67" width="6.67" x="180" y="53.33"></rect>
			<rect height="6.67" width="6.67" x="180" y="40"></rect>
			<rect height="6.67" width="6.67" x="180" y="66.67"></rect>
			<rect height="6.67" width="6.67" x="190" y="53.33"></rect>
			<rect height="6.67" width="6.67" x="190" y="40"></rect>
			<rect height="6.67" width="6.67" x="190" y="66.67"></rect>
			<rect height="6.67" width="6.67" x="200" y="26.67"></rect>
			<rect height="6.67" width="6.67" x="200" y="80"></rect>
			<rect height="6.67" width="6.67" x="200" y="53.33"></rect>
			<rect height="6.67" width="6.67" x="200" y="40"></rect>
			<rect height="6.67" width="6.67" x="200" y="66.67"></rect>
			<rect height="6.67" width="6.67" x="210" y="13.33"></rect>
			<rect height="6.67" width="6.67" x="210"></rect>
			<rect height="6.67" width="6.67" x="210" y="106.67"></rect>
			<rect height="6.67" width="6.67" x="210" y="93.33"></rect>
			<rect height="6.67" width="6.67" x="210" y="26.67"></rect>
			<rect height="6.67" width="6.67" x="210" y="80"></rect>
			<rect height="6.67" width="6.67" x="210" y="53.33"></rect>
			<rect height="6.67" width="6.67" x="210" y="40"></rect>
			<rect height="6.67" width="6.67" x="210" y="66.67"></rect>
			<rect height="6.67" width="6.67" x="220" y="13.33"></rect>
			<rect height="6.67" width="6.67" x="220" y="93.33"></rect>
			<rect height="6.67" width="6.67" x="220" y="26.67"></rect>
			<rect height="6.67" width="6.67" x="220" y="80"></rect>
			<rect height="6.67" width="6.67" x="220" y="53.33"></rect>
			<rect height="6.67" width="6.67" x="220" y="40"></rect>
			<rect height="6.67" width="6.67" x="220" y="66.67"></rect>
			<rect height="6.67" width="6.67" x="230" y="53.33"></rect>
			<rect height="6.67" width="6.67" x="230" y="40"></rect>
			<rect height="6.67" width="6.67" x="230" y="66.67"></rect>
			<rect height="6.67" width="6.67" x="240" y="13.33"></rect>
			<rect height="6.67" width="6.67" x="240"></rect>
			<rect height="6.67" width="6.67" x="240" y="106.67"></rect>
			<rect height="6.67" width="6.67" x="240" y="93.33"></rect>
			<rect height="6.67" width="6.67" x="240" y="26.67"></rect>
			<rect height="6.67" width="6.67" x="240" y="80"></rect>
			<rect height="6.67" width="6.67" x="240" y="53.33"></rect>
			<rect height="6.67" width="6.67" x="240" y="40"></rect>
			<rect height="6.67" width="6.67" x="240" y="66.67"></rect>
			<rect height="6.67" width="6.67" x="250" y="13.33"></rect>
			<rect height="6.67" width="6.67" x="250" y="93.33"></rect>
			<rect height="6.67" width="6.67" x="250" y="26.67"></rect>
			<rect height="6.67" width="6.67" x="250" y="80"></rect>
			<rect height="6.67" width="6.67" x="250" y="53.33"></rect>
			<rect height="6.67" width="6.67" x="250" y="40"></rect>
			<rect height="6.67" width="6.67" x="250" y="66.67"></rect>
			<rect height="6.67" width="6.67" x="260" y="13.33"></rect>
			<rect height="6.67" width="6.67" x="260"></rect>
			<rect height="6.67" width="6.67" x="260" y="106.67"></rect>
			<rect height="6.67" width="6.67" x="260" y="93.33"></rect>
			<rect height="6.67" width="6.67" x="260" y="26.67"></rect>
			<rect height="6.67" width="6.67" x="260" y="80"></rect>
			<rect height="6.67" width="6.67" x="260" y="53.33"></rect>
			<rect height="6.67" width="6.67" x="260" y="40"></rect>
			<rect height="6.67" width="6.67" x="260" y="66.67"></rect>
			<rect height="6.67" width="6.67" x="270" y="26.67"></rect>
			<rect height="6.67" width="6.67" x="270" y="80"></rect>
			<rect height="6.67" width="6.67" x="270" y="53.33"></rect>
			<rect height="6.67" width="6.67" x="270" y="40"></rect>
			<rect height="6.67" width="6.67" x="270" y="66.67"></rect>
			<rect height="6.67" width="6.67" x="280" y="13.33"></rect>
			<rect height="6.67" width="6.67" x="280" y="26.67"></rect>
			<rect height="6.67" width="6.67" x="280" y="93.33"></rect>
			<rect height="6.67" width="6.67" x="280" y="80"></rect>
			<rect height="6.67" width="6.67" x="280" y="53.33"></rect>
			<rect height="6.67" width="6.67" x="280" y="40"></rect>
			<rect height="6.67" width="6.67" x="280" y="66.67"></rect>
			<rect height="6.67" width="6.67" x="290" y="13.33"></rect>
			<rect height="6.67" width="6.67" x="290"></rect>
			<rect height="6.67" width="6.67" x="290" y="26.67"></rect>
			<rect height="6.67" width="6.67" x="290" y="93.33"></rect>
			<rect height="6.67" width="6.67" x="290" y="80"></rect>
			<rect height="6.67" width="6.67" x="290" y="106.67"></rect>
			<rect height="6.67" width="6.67" x="290" y="53.33"></rect>
			<rect height="6.67" width="6.67" x="290" y="40"></rect>
			<rect height="6.67" width="6.67" x="290" y="66.67"></rect>
			<rect height="6.67" width="6.67" x="300" y="13.33"></rect>
			<rect height="6.67" width="6.67" x="300" y="26.67"></rect>
			<rect height="6.67" width="6.67" x="300" y="93.33"></rect>
			<rect height="6.67" width="6.67" x="300" y="80"></rect>
			<rect height="6.67" width="6.67" x="300" y="53.33"></rect>
			<rect height="6.67" width="6.67" x="300" y="40"></rect>
			<rect height="6.67" width="6.67" x="300" y="66.67"></rect>
			<rect height="6.67" width="6.67" x="310" y="53.33"></rect>
			<rect height="6.67" width="6.67" x="320" y="53.33"></rect>
			<rect height="6.67" width="6.67" x="310" y="40"></rect>
			<rect height="6.67" width="6.67" x="310" y="66.67"></rect>
		</g>
	</g>
</svg>