<svg xmlns="http://www.w3.org/2000/svg" viewBox="0 0 32 42"><defs><style>.cls-1{fill:#df2d52;}.cls-2{fill:#df2d52;}</style></defs><title>g9566</title><g id="レイヤー_2" data-name="レイヤー 2"><g id="編集モード"><g id="g9566"><path id="rect4464" class="cls-1" d="M4.25,0A4.48,4.48,0,0,0,0,4.69V37.31A4.48,4.48,0,0,0,4.25,42h23.5A4.48,4.48,0,0,0,32,37.31V4.69A4.48,4.48,0,0,0,27.75,0ZM5.88,5.8H26.25v8H5.88ZM22.5,16.19h3.63V18H22.5ZM5.56,20.12h3.5V23.5H5.56Zm5.63,0h3.56V23.5H11.19Zm5.69,0h3.43V23.5H16.88Zm5.75,0h3.5V23.5h-3.5ZM5.56,26.06h3.5v3.63H5.56Zm5.63,0h3.56v3.63H11.19Zm5.69,0h3.43v3.63H16.88Zm5.75,0h3.5v9.75h-3.5Zm-17.07,6h3.5v3.69H5.56Zm5.63,0h3.56v3.69H11.19Zm5.69,0h3.43v3.69H16.88Z"/><path id="rect8760" class="cls-2" d="M8.2,7.69v4.09H23.68V7.69Z"/></g></g></g></svg>