<svg xmlns="http://www.w3.org/2000/svg" viewBox="0 0 60.61 40"><defs><style>.cls-1{fill:#df2d52;}.cls-2{fill:#df2d52;}</style></defs><title>g8313</title><g id="レイヤー_2" data-name="レイヤー 2"><g id="編集モード"><g id="g8313"><path id="path4866" class="cls-1" d="M51.9,0,8.65.06A2.3,2.3,0,0,0,6.34,2.38V30.2h4.25v-26H50v26h4.25L54.21,2.38A2.35,2.35,0,0,0,51.9,0Z"/><path id="path4864" class="cls-1" d="M0,31.94v3.75A4.15,4.15,0,0,0,4.44,40H56.17c3.17,0,4.32-2.54,4.44-4.44V31.94Zm27.21,2h6.07a1,1,0,0,1,0,2H27.21a1,1,0,0,1,0-2Z"/><path id="path4878" class="cls-2" d="M22.93,9.26l5.65,14.91,2.93-2.69,4,4.55,3-2.94-4.17-4.24,2.93-2.69Z"/></g></g></g></svg>