<svg xmlns="http://www.w3.org/2000/svg" viewBox="0 0 50.76 42"><defs><style>.cls-1{fill:#df2d52;}.cls-2{fill:#df2d52;}</style></defs><title>g8662</title><g id="レイヤー_2" data-name="レイヤー 2"><g id="編集モード"><g id="g8662"><path id="path22215" class="cls-1" d="M0,27.2v7.2A7.81,7.81,0,0,0,7.67,42H43.08c4.14,0,7.83-3.58,7.67-7.6V27.2c0-4.1-6.38-3.71-6.38,0l0,6.34a2.12,2.12,0,0,1-2.12,2.12c-9.38-.08-24.45,0-33.83,0a2.12,2.12,0,0,1-2.12-2.12l0-6.34C6.38,23,0,23,0,27.2Z"/><path id="path22217" class="cls-2" d="M18,0a1.19,1.19,0,0,0-1.14,1.23l.06,5.11H33.84V1.23A1.21,1.21,0,0,0,32.68,0Z"/><path id="path22219" class="cls-1" d="M23.56,30.26,11.17,18.11C10,17,10.56,15.26,12.56,15.26h4.36v-7H33.84v7H38.2c1.25,0,1.93.65,2,1.42a1.86,1.86,0,0,1-.6,1.43L27.2,30.26a2.54,2.54,0,0,1-3.64,0Z"/></g></g></g></svg>